<?xml version="1.0" standalone="no"?>
<!DOCTYPE svg PUBLIC "-//W3C//DTD SVG 20010904//EN"
 "http://www.w3.org/TR/2001/REC-SVG-20010904/DTD/svg10.dtd">
<svg version="1.0" xmlns="http://www.w3.org/2000/svg"
 width="1024.000000pt" height="1024.000000pt" viewBox="0 0 1024.000000 1024.000000"
 preserveAspectRatio="xMidYMid meet">

<g transform="translate(0.000000,1024.000000) scale(0.100000,-0.100000)"
fill="#000000" stroke="none">
<path d="M2421 9635 c-130 -37 -235 -128 -357 -310 -174 -261 -281 -569 -330
-950 -24 -187 -15 -472 21 -644 96 -460 414 -852 892 -1102 65 -33 79 -45 68
-53 -28 -22 -188 -273 -230 -361 -47 -99 -65 -167 -65 -251 0 -62 9 -85 52
-130 l29 -31 -50 -100 c-65 -131 -192 -428 -230 -541 -38 -108 -40 -171 -8
-232 26 -52 71 -86 127 -95 22 -4 40 -8 40 -10 0 -2 -16 -59 -35 -126 -82
-287 -111 -535 -77 -649 13 -42 70 -112 101 -121 11 -4 10 -21 -4 -99 -11 -60
-19 -169 -22 -296 l-5 -202 -40 -18 c-52 -23 -135 -115 -167 -184 -22 -47 -25
-69 -26 -150 0 -122 28 -211 101 -321 l54 -80 0 -89 c0 -155 62 -300 158 -369
69 -49 123 -64 232 -67 l105 -3 12 -63 c7 -35 34 -106 59 -158 81 -164 212
-274 359 -301 59 -11 174 -8 206 5 13 6 17 -1 22 -29 13 -81 99 -218 183 -293
61 -55 154 -105 224 -121 64 -15 186 -13 248 3 l53 14 12 -26 c6 -15 29 -50
50 -79 94 -126 250 -211 422 -227 77 -8 207 14 281 48 l56 26 36 -30 c88 -70
242 -120 367 -120 136 0 309 64 401 147 36 33 38 34 80 24 24 -6 76 -11 116
-11 271 1 482 158 573 429 l22 65 61 12 c133 27 247 119 310 248 63 128 74
305 28 440 -15 44 -36 91 -46 106 -17 24 -19 39 -13 146 6 136 -9 242 -51 345
l-25 63 63 66 c111 115 172 232 183 352 l6 56 64 33 c42 22 86 56 131 103 230
243 265 646 86 987 l-35 67 16 48 c30 89 -6 173 -130 303 l-74 77 -10 84 c-5
47 -12 119 -15 161 l-5 75 50 70 c87 118 133 227 159 370 15 82 3 214 -30 348
-19 75 -19 80 -3 98 16 18 16 25 1 117 -9 53 -28 131 -41 172 l-24 75 96 -12
c328 -42 627 -44 739 -4 81 29 139 73 170 130 20 38 23 55 19 112 -7 113 -63
183 -239 299 -111 73 -392 212 -535 265 -57 20 -103 40 -103 43 0 3 19 19 42
35 62 45 231 210 315 309 196 230 346 517 438 833 45 155 58 254 53 409 -5
123 -9 151 -37 233 -70 209 -178 318 -326 330 -150 12 -238 -59 -365 -293 -49
-90 -154 -250 -223 -339 -79 -100 -245 -283 -316 -345 l-68 -60 -59 87 c-76
113 -237 276 -339 342 -242 157 -616 269 -1040 310 -189 18 -182 16 -188 50
-10 47 -71 106 -135 131 -122 45 -338 33 -437 -26 -60 -35 -114 -103 -135
-172 -10 -32 -24 -60 -31 -64 -8 -3 -79 -28 -159 -53 -80 -26 -212 -80 -295
-121 -342 -167 -604 -381 -792 -648 -31 -43 -58 -76 -61 -73 -12 12 -96 383
-152 671 -112 576 -145 680 -242 778 -96 96 -243 137 -367 102z m172 -136 c47
-13 109 -67 143 -124 41 -70 62 -149 110 -399 54 -289 97 -480 169 -763 127
-491 327 -1076 481 -1402 l59 -125 12 40 c6 21 12 53 12 69 2 57 8 57 136 11
66 -24 215 -81 330 -128 386 -157 508 -187 792 -195 124 -4 227 -1 290 7 127
15 322 66 503 129 423 149 631 194 1029 224 59 5 65 1 179 -107 136 -129 262
-379 289 -574 l6 -43 -234 6 c-450 12 -545 26 -668 100 -40 25 -78 45 -84 45
-20 0 0 -119 26 -159 l26 -39 -24 -75 c-33 -102 -47 -225 -41 -359 9 -186 53
-293 171 -413 71 -72 127 -113 385 -282 262 -173 381 -271 450 -375 47 -71 50
-104 14 -148 -51 -60 -194 -145 -295 -174 l-55 -16 -97 64 c-143 94 -416 206
-502 206 -40 0 -75 -18 -75 -39 0 -32 24 -45 268 -147 63 -26 160 -76 215
-110 99 -60 102 -63 114 -110 7 -27 18 -100 24 -162 13 -127 1 -315 -29 -441
l-17 -71 -140 -4 c-246 -6 -482 -75 -665 -194 -62 -41 -142 -103 -137 -108 1
-2 59 15 127 37 137 44 368 101 499 124 121 21 271 19 366 -5 96 -25 138 -50
160 -97 15 -31 16 -42 5 -77 -31 -103 -101 -199 -212 -288 -278 -224 -714
-279 -1100 -138 -125 45 -189 89 -393 264 -158 136 -357 254 -549 326 -59 22
-208 69 -329 105 -425 122 -494 154 -642 296 -55 53 -136 138 -180 188 -44 50
-82 86 -83 81 -7 -19 39 -154 75 -222 43 -82 133 -183 218 -244 113 -80 179
-105 640 -244 405 -121 538 -191 831 -436 280 -233 473 -310 809 -321 175 -6
268 6 414 52 41 13 77 23 78 21 2 -2 8 -32 14 -66 8 -51 7 -79 -7 -140 l-16
-77 -62 -28 c-126 -58 -246 -214 -292 -383 -15 -53 -21 -63 -43 -68 -160 -35
-265 -85 -359 -170 l-61 -55 -38 24 c-182 112 -406 115 -578 6 -30 -19 -51
-27 -53 -20 -6 19 -117 99 -194 140 -106 58 -212 85 -333 85 -67 1 -108 -4
-124 -13 -21 -12 -25 -11 -34 5 -19 38 -204 211 -262 246 -90 54 -176 80 -272
82 l-82 1 -22 50 c-12 28 -41 80 -64 117 -114 176 -229 246 -424 257 l-103 6
-18 57 c-39 127 -147 283 -248 358 -74 54 -173 105 -247 124 -32 8 -61 18 -66
23 -23 23 -43 205 -42 388 0 216 12 300 74 513 22 73 39 137 39 142 0 31 -64
-4 -136 -72 l-41 -40 -12 33 c-16 46 -14 199 5 304 30 174 142 578 191 688 9
20 14 40 10 43 -3 3 -49 -24 -102 -60 -53 -36 -106 -66 -119 -66 -81 0 -60
115 86 475 108 266 178 417 224 485 24 36 40 66 35 68 -4 1 -48 -6 -97 -17
-49 -11 -89 -19 -91 -18 -1 1 3 25 9 52 15 73 78 199 167 333 91 136 155 210
218 253 l45 31 -81 33 c-316 130 -582 332 -773 589 -73 98 -170 294 -202 408
-73 258 -75 636 -6 950 95 423 321 811 517 883 46 17 115 19 166 4z m5248
-289 c44 -12 117 -87 152 -157 45 -88 61 -167 60 -303 0 -477 -323 -1073 -757
-1399 -82 -62 -96 -69 -122 -62 -23 6 -30 14 -31 37 -29 343 -83 576 -183 791
l-38 82 177 178 c231 232 348 388 519 693 50 90 114 144 177 149 6 1 26 -4 46
-9z m-1962 -636 c148 -74 277 -355 350 -763 12 -63 21 -136 21 -162 l0 -48
-62 -19 c-35 -11 -79 -22 -99 -26 l-36 -6 -7 102 c-24 346 -149 728 -257 783
-86 45 -122 -86 -154 -550 -8 -126 -18 -236 -20 -242 -3 -9 -30 -13 -89 -13
l-85 0 -5 33 c-3 17 -8 75 -11 127 -23 354 -122 643 -220 643 -34 0 -57 -22
-89 -89 -59 -121 -102 -359 -113 -636 -7 -180 1 -168 -115 -168 l-68 0 0 124
c0 441 114 816 271 897 44 22 136 26 190 8 74 -25 169 -122 207 -209 l15 -35
12 40 c28 95 101 195 160 221 52 23 144 17 204 -12z m529 -2560 c7 -2 169 -8
360 -14 243 -8 351 -15 359 -23 17 -17 50 -149 54 -217 l4 -55 -467 -3 -468
-2 0 49 c0 62 23 183 45 238 17 43 17 43 59 37 22 -3 47 -7 54 -10z m62 -462
c0 -82 64 -193 131 -227 39 -20 125 -18 174 4 69 31 125 114 140 209 l7 42
129 0 c98 0 129 -3 129 -13 0 -23 -59 -165 -86 -208 -60 -95 -154 -177 -285
-250 l-72 -39 -56 31 c-233 131 -366 270 -415 434 l-14 45 109 0 109 0 0 -28z
m523 -564 c3 -51 4 -94 3 -95 -1 -1 -39 22 -84 52 l-83 54 73 39 c40 22 76 40
79 41 3 0 9 -41 12 -91z m244 -751 c147 -290 115 -620 -80 -833 -51 -56 -103
-95 -144 -108 -16 -5 -35 2 -70 27 -26 18 -64 40 -83 47 -19 7 -36 14 -38 16
-2 1 6 30 18 65 25 76 50 262 50 367 0 75 -21 240 -35 274 -5 13 2 19 37 28
73 20 200 87 253 134 28 24 53 42 58 39 4 -2 19 -28 34 -56z m-4871 -1044 c3
-16 10 -43 14 -61 7 -28 5 -36 -17 -58 -24 -24 -25 -30 -19 -86 12 -116 108
-244 240 -318 66 -38 84 -68 65 -113 -25 -60 -94 -56 -198 14 -82 55 -144 128
-192 225 -74 151 -62 281 33 377 26 26 52 47 57 47 6 0 13 -12 17 -27z m284
-271 c179 -86 371 -359 305 -432 -44 -48 -113 -9 -167 93 -45 86 -158 198
-223 221 -27 10 -58 27 -67 38 -25 28 -23 77 4 105 27 29 43 26 148 -25z
m4065 -304 c9 -13 25 -54 37 -92 18 -59 20 -85 15 -185 -6 -135 -31 -233 -84
-334 -45 -84 -74 -111 -108 -95 -24 11 -25 12 -18 117 3 58 11 117 18 131 29
61 59 287 47 367 -9 67 -6 74 43 101 28 16 32 15 50 -10z m-4222 -188 c29 0
40 -12 57 -64 14 -44 57 -121 97 -173 14 -18 24 -36 21 -39 -8 -8 -97 15 -136
35 -78 40 -145 144 -158 245 l-7 48 51 -26 c28 -14 62 -26 75 -26z m328 0 c10
-6 29 -30 40 -53 54 -105 116 -154 234 -183 84 -20 115 -45 115 -90 0 -84
-122 -99 -263 -32 -87 42 -196 139 -226 202 -30 60 -28 111 5 141 29 26 63 32
95 15z m511 -37 c87 -39 185 -149 252 -280 14 -29 26 -62 26 -73 0 -30 -44
-70 -77 -70 -44 0 -70 25 -110 103 -81 163 -123 196 -246 197 -81 0 -101 9
-116 50 -13 38 0 77 31 90 40 17 187 6 240 -17z m3139 -294 c19 -36 6 -113
-25 -150 -43 -51 -67 -107 -81 -188 -14 -81 -39 -115 -79 -109 -28 4 -66 64
-66 104 0 41 37 146 75 209 35 60 126 155 148 155 9 0 21 -10 28 -21z m378
-103 c30 -162 -8 -321 -100 -421 -36 -39 -103 -85 -124 -85 -3 0 4 18 16 41
27 53 49 158 49 235 0 47 4 65 19 78 11 10 29 41 41 69 48 117 74 167 81 154
4 -6 12 -39 18 -71z m-3450 -27 c132 -155 186 -190 325 -209 99 -12 118 -20
140 -52 23 -33 20 -65 -10 -95 -25 -25 -29 -25 -112 -20 -146 8 -300 83 -401
193 -77 84 -87 157 -29 198 33 24 57 20 87 -15z m503 0 c84 -28 157 -81 266
-192 101 -104 111 -130 71 -181 -40 -51 -109 -24 -184 74 -96 125 -164 165
-277 162 -72 -2 -78 -1 -97 24 -30 38 -28 87 5 113 36 28 133 28 216 0z m-947
-20 c16 -5 54 -10 83 -11 50 -2 54 -4 67 -35 13 -30 82 -109 197 -225 l48 -48
-53 0 c-120 0 -248 68 -316 168 -22 33 -52 86 -66 117 -21 49 -22 56 -7 50 9
-4 30 -11 47 -16z m3600 -219 c24 -26 17 -109 -15 -176 -33 -68 -150 -182
-225 -218 -99 -48 -144 -59 -171 -41 -12 8 -25 29 -29 46 -10 45 17 76 105
123 95 50 154 110 192 194 17 37 35 73 40 80 17 20 82 15 103 -8z m-1925 -77
c90 -24 190 -82 258 -149 55 -56 62 -66 62 -102 0 -60 -8 -72 -46 -72 -25 0
-47 12 -91 48 -89 74 -149 112 -209 133 -65 23 -96 24 -179 3 -60 -15 -67 -15
-90 0 -27 18 -40 54 -31 89 16 65 180 90 326 50z m1552 -10 c32 -29 20 -101
-21 -122 -10 -6 -49 -15 -86 -21 -87 -14 -113 -28 -196 -106 -38 -35 -75 -64
-84 -64 -31 0 -54 21 -61 55 -15 84 121 210 281 261 59 19 145 17 167 -3z
m-2096 -124 c22 -18 64 -43 94 -58 51 -24 64 -26 182 -24 126 2 127 2 148 -24
25 -32 26 -74 2 -103 -14 -17 -34 -24 -97 -31 -201 -24 -428 55 -460 159 -3
12 -1 38 5 57 21 63 67 71 126 24z m1347 20 c81 -17 177 -67 204 -108 26 -38
30 -88 10 -116 -22 -29 -92 -16 -151 28 -109 84 -235 81 -357 -8 -70 -52 -114
-43 -125 26 -5 30 -1 41 24 70 81 93 247 138 395 108z m-1824 -35 c24 -8 65
-14 90 -14 l46 0 24 -55 c30 -70 102 -136 196 -181 38 -19 76 -34 85 -35 8 0
-3 -7 -25 -15 -62 -24 -170 -14 -240 21 -109 56 -218 179 -250 284 -6 21 -5
23 11 16 11 -4 39 -14 63 -21z m2408 -180 c22 -22 25 -32 20 -67 -4 -33 -15
-50 -50 -82 -122 -111 -432 -141 -523 -50 -49 49 -17 144 44 132 15 -3 55 -11
89 -18 106 -21 216 7 307 80 47 38 79 39 113 5z m-1217 -29 c26 -19 67 -42 91
-51 60 -22 192 -23 243 -1 53 23 83 21 111 -8 30 -30 32 -73 5 -107 -49 -63
-224 -86 -369 -49 -137 34 -211 92 -211 164 0 29 47 87 70 87 7 0 34 -16 60
-35z m1558 -87 c-40 -72 -120 -145 -200 -183 -87 -41 -224 -65 -273 -48 l-30
11 50 22 c119 52 143 67 195 115 44 42 67 55 120 69 36 9 83 25 105 36 57 26
59 25 33 -22z m-1940 -69 c18 -16 32 -32 31 -36 -2 -17 118 -56 179 -59 42 -2
72 -10 90 -22 36 -26 88 -47 136 -56 l40 -8 -30 -18 c-68 -44 -215 -62 -314
-39 -68 15 -161 63 -214 110 -43 38 -106 129 -106 154 0 7 29 9 78 6 68 -3 81
-7 110 -32z m1107 -157 c23 -8 72 -14 114 -14 l74 1 -34 -35 c-48 -50 -160
-101 -251 -115 -127 -20 -286 18 -365 86 l-38 33 25 5 c14 3 48 10 75 17 28 6
93 11 145 11 71 -1 106 4 140 18 25 10 52 17 60 14 8 -3 33 -12 55 -21z"/>
<path d="M2482 8880 c-76 -152 -86 -211 -86 -470 0 -244 9 -322 65 -547 109
-448 308 -808 523 -951 56 -36 113 -55 158 -50 l31 3 -68 80 c-317 371 -477
713 -546 1168 -18 117 -23 204 -28 497 l-6 355 -43 -85z"/>
<path d="M5417 6242 c-26 -27 -78 -66 -115 -88 l-67 -39 -560 5 c-874 8 -1025
-2 -1060 -71 -24 -45 -7 -59 70 -59 l62 0 -15 -62 c-20 -83 -23 -414 -4 -410
7 1 12 -9 12 -26 0 -49 39 -184 72 -251 94 -193 350 -330 648 -347 182 -11
339 18 488 92 160 78 280 212 341 380 58 161 82 422 52 569 -7 33 -13 67 -14
75 -1 10 17 21 53 33 68 23 84 37 98 86 17 55 12 161 -7 161 -4 0 -28 -22 -54
-48z m-208 -294 c16 -53 30 -174 24 -218 l-6 -40 -700 0 -700 0 6 108 c4 59
11 124 17 145 l11 37 669 0 668 0 11 -32z m-1043 -386 c6 -4 17 -32 24 -62 25
-108 77 -181 163 -227 45 -25 199 -25 244 0 86 46 144 125 173 231 l17 61 217
3 c169 2 216 0 216 -10 0 -30 -50 -171 -81 -230 -77 -146 -228 -249 -426 -290
-132 -27 -342 -21 -448 12 -146 46 -250 119 -315 220 -34 54 -74 165 -85 242
l-7 47 53 4 c104 7 244 7 255 -1z"/>
</g>
</svg>
